<svg width="48" height="48" viewBox="0 0 48 48" fill="none" xmlns="http://www.w3.org/2000/svg">
<rect x="0.5" y="0.5" width="47" height="47" fill="#323238" fill-opacity="0.67" stroke="black"/>
<g clip-path="url(#clip0_1202:852)">
<path d="M22.724 36C21.617 36 20.324 35.994 19.048 35.921C17.1811 35.963 15.3729 35.267 14.016 33.984C12.7328 32.6276 12.0367 30.8197 12.079 28.953C12 27.51 12 26.051 12 24.64C12 24.4267 12 24.2133 12 24C12 23.7867 12 23.5733 12 23.36C12 21.949 12 20.49 12.079 19.048C12.037 17.1811 12.733 15.3729 14.016 14.016C15.3729 12.733 17.1811 12.037 19.048 12.079C20.328 12.006 21.617 12 22.724 12H25.277C26.384 12 27.677 12.006 28.954 12.079C30.8207 12.0367 32.6286 12.7328 33.985 14.016C35.268 15.3729 35.964 17.1811 35.922 19.048C36 20.49 36 21.949 36 23.361C36 23.5743 36 23.7877 36 24.001C36 24.2143 36 24.4273 36 24.64C36 26.051 36 27.51 35.921 28.954C35.9633 30.8207 35.2672 32.6286 33.984 33.985C32.6276 35.2682 30.8197 35.9643 28.953 35.922C27.672 35.995 26.383 36.001 25.276 36.001L22.724 36Z" fill="white"/>
<path d="M29.6078 18.788C29.8443 18.946 30.1223 19.0303 30.4068 19.0303L30.4078 19.0313C30.7891 19.0308 31.1546 18.8789 31.424 18.6091C31.6934 18.3393 31.8448 17.9736 31.8448 17.5923C31.8448 17.3079 31.7604 17.0299 31.6024 16.7934C31.4444 16.5569 31.2198 16.3726 30.957 16.2638C30.6943 16.1549 30.4052 16.1264 30.1262 16.1819C29.8473 16.2374 29.591 16.3744 29.3899 16.5755C29.1888 16.7766 29.0519 17.0328 28.9964 17.3118C28.9409 17.5907 28.9694 17.8798 29.0782 18.1426C29.1871 18.4054 29.3714 18.6299 29.6078 18.788Z" fill="#323238" fill-opacity="0.67"/>
<path fill-rule="evenodd" clip-rule="evenodd" d="M23.9988 30.1558C22.7813 30.1556 21.5912 29.7943 20.5789 29.1178C19.5667 28.4412 18.7778 27.4797 18.3121 26.3549C17.8463 25.23 17.7245 23.9922 17.9622 22.7982C18.1998 21.6041 18.7862 20.5073 19.6472 19.6465C20.5081 18.7856 21.605 18.1994 22.7991 17.962C23.9933 17.7245 25.231 17.8465 26.3558 18.3124C27.4806 18.7784 28.442 19.5674 29.1184 20.5798C29.7947 21.5921 30.1558 22.7823 30.1558 23.9998C30.1542 25.6322 29.505 27.1973 28.3507 28.3517C27.1963 29.506 25.6312 30.1542 23.9988 30.1558ZM23.9987 20.0003C23.2076 20.0003 22.4342 20.2349 21.7764 20.6744C21.1186 21.1139 20.6059 21.7386 20.3032 22.4695C20.0004 23.2004 19.9212 24.0047 20.0756 24.7806C20.2299 25.5566 20.6109 26.2693 21.1703 26.8287C21.7297 27.3881 22.4424 27.7691 23.2183 27.9234C23.9943 28.0778 24.7985 27.9985 25.5294 27.6958C26.2603 27.393 26.885 26.8804 27.3246 26.2226C27.7641 25.5648 27.9987 24.7914 27.9987 24.0003C27.9987 22.9394 27.5773 21.922 26.8271 21.1718C26.077 20.4217 25.0596 20.0003 23.9987 20.0003Z" fill="#323238" fill-opacity="0.67"/>
</g>
<defs>
<clipPath id="clip0_1202:852">
<rect width="24" height="24" fill="white" transform="translate(12 12)"/>
</clipPath>
</defs>
</svg>
