<svg width="48" height="48" viewBox="0 0 48 48" fill="none" xmlns="http://www.w3.org/2000/svg">
<rect width="48" height="48" fill="#323238" fill-opacity="0.67"/>
<g clip-path="url(#clip0_1202:841)">
<path d="M36.6831 16.8445C35.7585 17.235 34.7786 17.4927 33.7751 17.609C34.8334 17.0035 35.6252 16.0508 36.003 14.9286C35.0097 15.4957 33.9216 15.8948 32.7864 16.1083C32.093 15.3968 31.1912 14.9016 30.1989 14.6873C29.2066 14.473 28.1697 14.5495 27.2235 14.9069C26.2774 15.2643 25.4659 15.886 24.895 16.6908C24.324 17.4956 24.0202 18.4463 24.023 19.4187C24.021 19.7908 24.0649 20.1618 24.1538 20.5241C22.1378 20.4286 20.1656 19.9277 18.3658 19.0542C16.5661 18.1807 14.9794 16.9542 13.7093 15.4548C13.0613 16.5223 12.8635 17.7857 13.1561 18.9877C13.4487 20.1898 14.2098 21.24 15.2842 21.9244C14.4767 21.9053 13.6864 21.6975 12.9823 21.3192V21.3794C12.9818 22.4987 13.3867 23.5836 14.1283 24.4499C14.8699 25.3161 15.9025 25.9103 17.0505 26.1313C16.6156 26.244 16.1669 26.3012 15.7162 26.3012C15.3967 26.3018 15.0779 26.2717 14.7646 26.2115C15.0882 27.1742 15.7186 28.016 16.5676 28.6193C17.4166 29.2226 18.4416 29.5571 19.4993 29.5761C17.7047 30.9244 15.4871 31.6554 13.2045 31.6512C12.8006 31.6507 12.3971 31.6275 11.9961 31.5816C14.3027 33.0162 16.9967 33.7771 19.7486 33.7712C21.6469 33.7839 23.529 33.4358 25.2853 32.7472C27.0416 32.0586 28.6372 31.0432 29.9793 29.7599C31.3214 28.4767 32.3832 26.9513 33.1031 25.2724C33.8229 23.5935 34.1865 21.7946 34.1725 19.9802C34.1725 19.7702 34.1725 19.5602 34.1565 19.3549C35.148 18.6682 36.0035 17.8181 36.6831 16.8445V16.8445Z" fill="white"/>
</g>
<defs>
<clipPath id="clip0_1202:841">
<rect width="24.6857" height="19.2" fill="white" transform="translate(12 14.5703)"/>
</clipPath>
</defs>
</svg>
