<svg width="48" height="48" viewBox="0 0 48 48" fill="none" xmlns="http://www.w3.org/2000/svg">
<rect width="48" height="48" fill="#323238" fill-opacity="0.67"/>
<g clip-path="url(#clip0_1202:848)">
<path d="M36.5256 18.81C36.5701 17.7816 36.2194 16.7769 35.5503 16.0163C34.8812 15.2558 33.9485 14.8015 32.9568 14.7531C30.2854 14.6233 27.5612 14.5703 24.7787 14.5703H23.9112C21.1341 14.5703 18.4045 14.6206 15.7332 14.7531C14.7412 14.8048 13.8093 15.2616 13.1413 16.0237C12.4734 16.7859 12.1237 17.7913 12.1687 18.82C12.0488 20.6034 11.9951 22.3796 12.0004 24.1603C12.0056 25.9409 12.0488 27.7198 12.1643 29.5051C12.1173 30.5354 12.4659 31.543 13.1338 32.3074C13.8016 33.0719 14.7344 33.5308 15.7279 33.5838C18.5341 33.7191 21.4135 33.7785 24.3406 33.774C27.2723 33.7837 30.1432 33.7203 32.9532 33.5838C33.9468 33.5317 34.88 33.0737 35.5486 32.31C36.2173 31.5463 36.567 30.5391 36.5212 29.5087C36.6367 27.7235 36.6896 25.9437 36.6852 24.1593C36.6946 22.3762 36.6414 20.5931 36.5256 18.81ZM21.9787 29.0645V19.2405L28.9709 24.1502L21.9787 29.0645Z" fill="white"/>
</g>
<defs>
<clipPath id="clip0_1202:848">
<rect width="24.6857" height="19.2" fill="white" transform="translate(12 14.5703)"/>
</clipPath>
</defs>
</svg>
